HIERARCHY
ROOT Hips
{
 OFFSET 0.000000 0.000000 0.000000
 CHANNELS 6 Xposition Yposition Zposition Yrotation Xrotation Zrotation
 JOINT Chest
 {
  OFFSET 0.000000 9.588913 -0.003946
  CHANNELS 3 Yrotation Xrotation Zrotation
  JOINT Chest2
  {
   OFFSET 0.000000 9.541882 0.008053
   CHANNELS 3 Yrotation Xrotation Zrotation
   JOINT Chest3
   {
    OFFSET 0.000000 9.501360 0.000000
    CHANNELS 3 Yrotation Xrotation Zrotation
    JOINT Chest4
    {
     OFFSET 0.000000 9.491660 0.000000
     CHANNELS 3 Yrotation Xrotation Zrotation
     JOINT Neck
     {
      OFFSET 0.000000 14.331917 0.000000
      CHANNELS 3 Yrotation Xrotation Zrotation
      JOINT Head
      {
       OFFSET 0.000000 8.884799 0.017034
       CHANNELS 3 Yrotation Xrotation Zrotation
       End Site
       {
        OFFSET 0.000000 16.896195 0.008993
       }
      }
     }
     JOINT RightCollar
     {
      OFFSET -2.923010 9.499495 0.000000
      CHANNELS 3 Yrotation Xrotation Zrotation
      JOINT RightShoulder
      {
       OFFSET -13.795216 0.000000 0.000000
       CHANNELS 3 Yrotation Xrotation Zrotation
       JOINT RightElbow
       {
        OFFSET -30.272209 0.000000 0.000000
        CHANNELS 3 Yrotation Xrotation Zrotation
        JOINT RightWrist
        {
         OFFSET -24.478199 0.000000 0.000000
         CHANNELS 3 Yrotation Xrotation Zrotation
         End Site
         {
          OFFSET -18.090752 0.000000 0.000000
         }
        }
       }
      }
     }
     JOINT LeftCollar
     {
      OFFSET 2.923010 9.499495 0.000000
      CHANNELS 3 Yrotation Xrotation Zrotation
      JOINT LeftShoulder
      {
       OFFSET 13.795216 0.000000 0.000000
       CHANNELS 3 Yrotation Xrotation Zrotation
       JOINT LeftElbow
       {
        OFFSET 30.272209 0.000000 0.000000
        CHANNELS 3 Yrotation Xrotation Zrotation
        JOINT LeftWrist
        {
         OFFSET 24.478199 0.000000 0.000000
         CHANNELS 3 Yrotation Xrotation Zrotation
         End Site
         {
          OFFSET 18.090752 0.000000 0.000000
         }
        }
       }
      }
     }
    }
   }
  }
 }
 JOINT RightHip
 {
  OFFSET -7.826875 0.019532 0.001973
  CHANNELS 3 Yrotation Xrotation Zrotation
  JOINT RightKnee
  {
   OFFSET 0.000000 -40.546152 -0.001885
   CHANNELS 3 Yrotation Xrotation Zrotation
   JOINT RightAnkle
   {
    OFFSET 0.000000 -39.417092 -0.003189
    CHANNELS 3 Yrotation Xrotation Zrotation
    JOINT RightToe
    {
     OFFSET 0.000000 -7.579396 17.243563
     CHANNELS 3 Yrotation Xrotation Zrotation
     End Site
     {
      OFFSET 0.000000 -1.500329 6.694466
     }
    }
   }
  }
 }
 JOINT LeftHip
 {
  OFFSET 7.826875 0.019532 0.001973
  CHANNELS 3 Yrotation Xrotation Zrotation
  JOINT LeftKnee
  {
   OFFSET 0.000000 -40.546152 -0.001885
   CHANNELS 3 Yrotation Xrotation Zrotation
   JOINT LeftAnkle
   {
    OFFSET 0.000000 -39.417092 -0.003189
    CHANNELS 3 Yrotation Xrotation Zrotation
    JOINT LeftToe
    {
     OFFSET 0.000000 -7.579396 17.243563
     CHANNELS 3 Yrotation Xrotation Zrotation
     End Site
     {
      OFFSET 0.000000 -1.500329 6.694466
     }
    }
   }
  }
 }
}
MOTION
Frames: 13
Frame Time: 0.008333
-0.892195 89.408690 12.119381 -44.146276 -3.412355 -2.176556 0.380643 5.511719 0.164643 0.153951 3.172411 0.122804 0.193571 3.965464 0.154905 0.153941 3.172417 0.122816 3.584698 20.199916 -1.457353 6.958201 1.880243 -3.715232 -0.613052 -2.731597 -4.404839 -1.230816 4.524365 89.607345 19.341330 12.463956 7.048235 1.288719 -1.202835 -1.443854 -0.896615 -3.432658 4.300325 14.439777 4.293977 -74.779683 -21.982178 10.457919 -6.087995 2.454844 -3.760722 1.671490 -2.598180 2.814388 0.644825 -3.106897 8.485513 -0.746975 -7.332292 -5.122075 2.599715 -0.014609 -0.055183 0.068586 7.021597 4.111916 -0.688111 -0.218680 4.352956 -0.634949 -3.610323 -4.148196 2.167967 0.066948 0.094813 0.008793
-0.958114 89.407945 12.210880 -44.414559 -3.510530 -2.123922 0.381068 5.354792 0.249655 0.154243 3.082465 0.167736 0.194280 3.853012 0.211052 0.154233 3.082471 0.167748 3.495036 20.320286 -1.474379 6.794413 2.099137 -3.712773 -0.728031 -2.665072 -4.394262 -1.302508 4.457410 89.656142 18.810948 12.572324 6.860648 1.269345 -1.197848 -1.448981 -0.703421 -3.355874 4.338665 14.557621 4.701216 -75.150340 -21.934462 10.545671 -6.134275 2.474952 -3.737636 1.614450 -2.396245 3.059042 0.578712 -3.063728 8.266282 -0.730599 -7.297214 -5.104534 2.584358 -0.011388 -0.048968 0.067341 7.125040 4.459712 -0.752082 -0.137237 4.063620 -0.581928 -3.520429 -4.111542 2.149412 0.059491 0.075282 -0.000351
-1.023706 89.407225 12.297585 -44.666415 -3.600904 -2.075776 0.377725 5.197560 0.333409 0.152802 2.992078 0.211970 0.192795 3.740010 0.266308 0.152793 2.992084 0.211981 3.408093 20.432975 -1.487655 6.634975 2.303765 -3.705007 -0.843327 -2.591708 -4.383185 -1.380729 4.388371 89.709010 18.274513 12.683424 6.667967 1.254002 -1.194117 -1.455502 -0.508097 -3.274824 4.374038 14.657341 5.098836 -75.529020 -21.876728 10.623792 -6.164227 2.486617 -3.722823 1.572064 -2.213693 3.301432 0.519374 -3.017757 8.036213 -0.709850 -7.275684 -5.079921 2.566741 -0.008534 -0.044022 0.063561 7.201860 4.792137 -0.813774 -0.053204 3.780226 -0.528215 -3.426931 -4.073604 2.129078 0.052114 0.056807 -0.008358
-1.089178 89.406058 12.379585 -44.905720 -3.685814 -2.034929 0.372399 5.040148 0.414638 0.150825 2.901324 0.256010 0.190616 3.626550 0.321317 0.150817 2.901330 0.256021 3.323665 20.539972 -1.494393 6.478604 2.497622 -3.686669 -0.958093 -2.516278 -4.368181 -1.454315 4.323166 89.761775 17.732725 12.786513 6.470040 1.237957 -1.193279 -1.464575 -0.307633 -3.191354 4.407436 14.732324 5.486430 -75.911090 -21.808196 10.686924 -6.182928 2.489853 -3.717548 1.545360 -2.050257 3.542717 0.473688 -2.968650 7.795936 -0.688051 -7.276701 -5.048465 2.546186 -0.007715 -0.039551 0.057933 7.249000 5.109023 -0.873355 0.032084 3.507938 -0.473558 -3.310993 -4.039411 2.110388 0.044649 0.040306 -0.017149
-1.154337 89.403976 12.456580 -45.137075 -3.764173 -2.003012 0.367650 4.881894 0.492738 0.149689 2.810189 0.300051 0.189466 3.512612 0.376331 0.149682 2.810194 0.300061 3.242627 20.642401 -1.493968 6.326663 2.682814 -3.656796 -1.076149 -2.443057 -4.348845 -1.514702 4.264427 89.814320 17.183782 12.871309 6.265414 1.217831 -1.187686 -1.472657 -0.105656 -3.104852 4.442897 14.784102 5.858564 -76.296584 -21.723077 10.732144 -6.193375 2.482390 -3.718677 1.533689 -1.895207 3.780552 0.440700 -2.922620 7.547739 -0.668002 -7.275951 -5.012139 2.524691 -0.007817 -0.035548 0.051802 7.265421 5.404650 -0.930848 0.114624 3.255494 -0.416144 -3.163748 -4.014712 2.094941 0.037181 0.026814 -0.028534
-1.218471 89.400559 12.527573 -45.365270 -3.829250 -1.981182 0.365278 4.720549 0.567819 0.150309 2.717348 0.343457 0.190483 3.396542 0.430563 0.150301 2.717353 0.343467 3.165801 20.741600 -1.486116 6.180518 2.861874 -3.615059 -1.199263 -2.370178 -4.323690 -1.565611 4.211337 89.869862 16.628375 12.942789 6.050946 1.192278 -1.176018 -1.478034 0.098778 -3.014600 4.484250 14.816509 6.212375 -76.681770 -21.617653 10.761709 -6.201253 2.456783 -3.723571 1.537319 -1.735214 4.006685 0.415314 -2.887575 7.294043 -0.647926 -7.239244 -4.972613 2.500686 -0.005836 -0.032349 0.048255 7.256760 5.670999 -0.984651 0.195828 3.024225 -0.354474 -2.994801 -4.001837 2.081033 0.029532 0.018360 -0.042029
-1.281413 89.395595 12.592354 -45.587747 -3.878875 -1.968667 0.364969 4.555563 0.639603 0.152364 2.622684 0.385873 0.193265 3.278191 0.483564 0.152358 2.622688 0.385882 3.090783 20.838987 -1.470528 6.035667 3.037289 -3.560121 -1.328223 -2.296889 -4.291788 -1.613806 4.164943 89.930164 16.071086 13.010062 5.826346 1.159098 -1.164419 -1.481761 0.301187 -2.916832 4.531343 14.838534 6.541248 -77.066918 -21.491868 10.785263 -6.207858 2.413070 -3.735340 1.553116 -1.568482 4.217842 0.396211 -2.861230 7.037576 -0.627855 -7.166718 -4.931716 2.472691 -0.000645 -0.029877 0.049187 7.232004 5.910666 -1.032337 0.277391 2.804640 -0.291516 -2.820653 -3.996541 2.069400 0.021207 0.015858 -0.056958
-1.343331 89.389102 12.652285 -45.794980 -3.917736 -1.958527 0.363801 4.389995 0.707050 0.153705 2.528038 0.426020 0.195115 3.159865 0.533720 0.153699 2.528042 0.426028 3.015253 20.935047 -1.448727 5.888331 3.209953 -3.494061 -1.463603 -2.227061 -4.255176 -1.661935 4.127757 89.995739 15.517026 13.073228 5.595000 1.115176 -1.153528 -1.484571 0.495182 -2.810914 4.577911 14.862092 6.838964 -77.450822 -21.345910 10.812627 -6.212363 2.359404 -3.752819 1.571843 -1.404248 4.419953 0.382428 -2.837518 6.777495 -0.609073 -7.097491 -4.891449 2.441259 0.005655 -0.025827 0.052534 7.202752 6.133698 -1.075267 0.354353 2.588705 -0.233386 -2.659524 -3.992233 2.062281 0.012851 0.017260 -0.072032
-1.403981 89.381205 12.708077 -45.984936 -3.945428 -1.943491 0.361287 4.226413 0.769122 0.153673 2.434008 0.462202 0.195203 3.042311 0.578908 0.153668 2.434011 0.462210 2.938237 21.029499 -1.423059 5.737441 3.379456 -3.420873 -1.602143 -2.161670 -4.216436 -1.714648 4.099721 90.066956 14.972747 13.127564 5.359792 1.059753 -1.145342 -1.488420 0.677743 -2.704584 4.618137 14.896637 7.108503 -77.825226 -21.180427 10.850414 -6.215330 2.302171 -3.768173 1.584296 -1.244054 4.611002 0.377030 -2.821057 6.514341 -0.591587 -7.084653 -4.852914 2.405448 0.008527 -0.017247 0.054164 7.183781 6.340862 -1.117971 0.420537 2.376678 -0.184863 -2.515506 -3.986435 2.061190 0.006826 0.019879 -0.085213
-1.463353 89.372129 12.759144 -46.162757 -3.956977 -1.922389 0.359531 4.063760 0.826602 0.153462 2.339631 0.494238 0.195022 2.924326 0.618911 0.153458 2.339634 0.494246 2.858841 21.122597 -1.395692 5.581992 3.546371 -3.344229 -1.739721 -2.098533 -4.177599 -1.778916 4.081061 90.143854 14.443582 13.171038 5.123726 0.996471 -1.138570 -1.496108 0.845757 -2.601105 4.651664 14.938631 7.354511 -78.188886 -20.996369 10.894334 -6.213980 2.248692 -3.777455 1.583907 -1.087894 4.783755 0.375619 -2.815740 6.251798 -0.575680 -7.104978 -4.817153 2.365602 0.009388 -0.004703 0.054704 7.179135 6.523865 -1.162124 0.477285 2.175465 -0.145915 -2.384549 -3.981788 2.064044 0.003432 0.022745 -0.094914
-1.521571 89.362179 12.804472 -46.332744 -3.946465 -1.897618 0.359591 3.898863 0.881223 0.153972 2.243633 0.523018 0.195702 2.804314 0.654845 0.153967 2.243635 0.523026 2.776882 21.213872 -1.368702 5.422260 3.709953 -3.267863 -1.871622 -2.036474 -4.140360 -1.865285 4.072665 90.226863 13.928683 13.209394 4.889997 0.932187 -1.128401 -1.508194 0.998606 -2.497156 4.677067 14.971103 7.579561 -78.547023 -20.793497 10.927466 -6.200577 2.204720 -3.779240 1.562776 -0.943086 4.932792 0.368104 -2.817247 5.990895 -0.561835 -7.091376 -4.783784 2.324816 0.012761 0.009355 0.056538 7.180737 6.672710 -1.207754 0.528598 1.991762 -0.111316 -2.263480 -3.981941 2.064393 0.001140 0.026411 -0.100029
-1.579392 89.351767 12.843746 -46.497187 -3.914564 -1.873083 0.362246 3.731935 0.933295 0.156248 2.146326 0.550026 0.198564 2.682666 0.688572 0.156245 2.146328 0.550033 2.691891 21.301516 -1.342857 5.257674 3.866876 -3.193117 -1.997183 -1.975918 -4.104892 -1.976867 4.074563 90.313574 13.427632 13.245967 4.662155 0.872605 -1.121775 -1.524104 1.132777 -2.391689 4.689660 14.988337 7.785599 -78.899171 -20.572098 10.939422 -6.169128 2.173844 -3.770945 1.514897 -0.813005 5.060438 0.356607 -2.821905 5.728103 -0.546702 -7.040535 -4.749449 2.282336 0.017651 0.023441 0.058286 7.183727 6.788669 -1.251385 0.577736 1.823803 -0.078793 -2.151204 -3.987100 2.059301 -0.000805 0.031556 -0.101009
-1.638608 89.341422 12.878087 -46.656603 -3.873911 -1.852747 0.366601 3.567230 0.981726 0.160105 2.050258 0.576385 0.203386 2.562563 0.721495 0.160101 2.050260 0.576391 2.604698 21.383544 -1.317404 5.089589 4.013459 -3.118937 -2.119563 -1.916853 -4.068871 -2.096794 4.085991 90.398431 12.943001 13.275147 4.444045 0.817045 -1.126588 -1.544346 1.250407 -2.286825 4.688651 14.988489 7.975621 -79.241527 -20.332371 10.923564 -6.120092 2.161252 -3.749813 1.437218 -0.696013 5.181956 0.348883 -2.826139 5.458621 -0.525739 -6.982640 -4.710051 2.234076 0.021112 0.035894 0.058771 7.190426 6.887874 -1.286125 0.626788 1.666360 -0.049232 -2.052189 -3.995623 2.049117 -0.002703 0.037959 -0.099120
